<?xml version="1.0" encoding="utf-8"?>
<!-- Generator: Adobe Illustrator 23.0.2, SVG Export Plug-In . SVG Version: 6.00 Build 0)  -->
<svg version="1.1" id="Layer_1" xmlns="http://www.w3.org/2000/svg" xmlns:xlink="http://www.w3.org/1999/xlink" x="0px" y="0px"
	 viewBox="0 0 521.1 90.6" style="enable-background:new 0 0 521.1 90.6;" xml:space="preserve">
<style type="text/css">
	.st0{fill:#122A3F;}
	.st1{fill:#7AAD44;}
	.st2{fill:#122A3F;stroke:#122A3F;stroke-miterlimit:10;}
</style>
<path class="st0" d="M120.6,61.5c0.4,0,0.8,0.4,0.8,0.8c-1,6.5-7.3,12.2-17.3,12.2c-12,0-18.5-7.9-18.5-18.8c0-11.5,6.8-19,18.3-19
	c11.7,0,18.3,7.8,18.6,20.2c0,0.4-0.4,0.8-0.8,0.8H96.2c0.4,6.8,3.1,9.8,8.1,9.8c3.5,0,5.9-1.5,6.9-5.2c0.1-0.5,0.6-0.8,1.1-0.8
	H120.6z M104,43.7c-4.2,0-6.7,2.5-7.5,7.5h14.7C110.8,47.3,108.6,43.7,104,43.7z"/>
<path class="st0" d="M188,72.7c0,0.5-0.3,1-0.8,1.1c-2,0.6-4.2,1.1-6.4,1.1c-6.1,0-11.9-3.1-11.9-11.2l0.1-18h-3.8
	c-0.4,0-0.8-0.4-0.8-0.8v-5.7c0-0.4,0.4-0.8,0.8-0.8h3.8l-0.1-8.2c0-0.4,0.4-0.8,0.8-0.8h9c0.4,0,0.8,0.4,0.8,0.8l-0.1,8.2h7.8
	c0.4,0,0.8,0.4,0.8,0.8v5.7c0,0.4-0.4,0.8-0.8,0.8h-7.8l0.1,17.7c0,3.1,1.5,4,3.8,4c1.6,0,2.9-0.3,3.8-0.6c0.4-0.1,0.8,0.2,0.8,0.6
	V72.7z"/>
<path class="st0" d="M293,72.1c0,0.5-0.3,1-0.8,1.1c-2,0.6-4.2,1.1-6.4,1.1c-6.1,0-11.9-3.1-11.9-11.2l0.1-18h-3.8
	c-0.4,0-0.8-0.4-0.8-0.8v-5.7c0-0.4,0.4-0.8,0.8-0.8h3.8l-0.1-8.2c0-0.4,0.4-0.8,0.8-0.8h9c0.4,0,0.8,0.4,0.8,0.8l-0.1,8.2h7.8
	c0.4,0,0.8,0.4,0.8,0.8v5.7c0,0.4-0.4,0.8-0.8,0.8h-7.8l0.1,17.7c0,3.1,1.5,4,3.8,4c1.6,0,2.9-0.3,3.8-0.6c0.4-0.1,0.8,0.2,0.8,0.6
	V72.1z"/>
<path class="st0" d="M331.1,61.5c0.4,0,0.8,0.4,0.8,0.8c-1,6.5-7.3,12.2-17.3,12.2c-12,0-18.5-7.9-18.5-18.8c0-11.5,6.8-19,18.3-19
	c11.7,0,18.3,7.8,18.6,20.2c0,0.4-0.4,0.8-0.8,0.8h-25.5c0.4,6.8,3.1,9.8,8.1,9.8c3.5,0,5.9-1.5,6.9-5.2c0.1-0.5,0.6-0.8,1.1-0.8
	H331.1z M314.4,43.7c-4.2,0-6.7,2.5-7.5,7.5h14.7C321.2,47.3,319.1,43.7,314.4,43.7z"/>
<path class="st1" d="M430.7,78.4c-17.2,0-29.1-12.5-29.1-30.8c0-18.6,11.5-30.8,28.9-30.8c14.5,0,23.9,7.1,27.1,19.4
	c0.2,0.5-0.3,1-0.8,1h-11.2c-0.6,0-1.1-0.4-1.3-1c-1.9-6.3-6.6-9.7-13.8-9.7c-10.3,0-15.8,8.2-15.8,21.3c0,12.8,5.8,20.9,16.3,20.9
	c8.4,0,13.7-5.1,14.1-14.3h-14.4c-0.5,0-1-0.5-1-1v-7.3c0-0.5,0.5-1,1-1H458c0.5,0,1,0.5,1,1C459.1,67.8,448.9,78.4,430.7,78.4z"/>
<path class="st0" d="M348.3,55.8c0-0.1,0-0.3,0-0.4c0-0.1,0-0.1,0-0.2V37.8c-0.1-0.1-0.3-0.2-0.4-0.2h-9c-0.4,0-0.8,0.4-0.8,0.8
	l0.3,20.5L338,84.7c0,0.4,0.4,0.8,0.8,0.8h9.2c0.1,0,0.2,0,0.3-0.1V55.8z"/>
<path class="st0" d="M361,37c-3.7,0-6.8,1.2-9.1,3.3v7.2c1.3-2.3,3.4-3.4,6.2-3.4c5.1,0,7.8,4.1,7.8,12c0,7.3-2.7,11.2-8,11.2
	c-2.7,0-4.7-1.2-6-3.5v7.4c2.3,2,5.3,3.1,8.9,3.1c9.8,0,15.8-8.4,15.8-18.8C376.6,45.1,371.2,37,361,37z"/>
<path class="st0" d="M236.7,53.3v-9.8c-4.9-1-8.6-2.4-8.6-6c0-4,3.6-5.8,8.7-5.8c5.9,0,9.4,2.4,10.1,6.6c0.1,0.5,0.4,0.8,1,0.8h9.4
	c0.4,0,0.8-0.4,0.7-0.8c-1.5-10.3-9.4-14.7-20.7-14.7c-12.5,0-19.6,5.7-19.6,14.9C217.5,49.8,227.9,51.6,236.7,53.3z"/>
<path class="st0" d="M239.6,43.8v9.8c5.7,1.1,10.4,2.4,10.4,6.7c0,4.6-3.5,6.5-9.8,6.5c-0.2,0-0.4,0-0.6,0v8c0.1,0,0.2,0,0.4,0
	c12.8,0,20.7-5.6,20.7-15.9C260.7,46.9,248.7,45.5,239.6,43.8z"/>
<path class="st0" d="M236.7,66.7c-6.2-0.6-8.3-3.9-9-8.7c-0.1-0.5-0.4-0.8-0.9-0.8h-9.4c-0.4,0-0.8,0.4-0.8,0.8
	c0.5,10.8,8.5,16.2,20.1,16.7V66.7z"/>
<path class="st0" d="M160.3,72.9L149.9,55l9.8-16.7c0.2-0.3-0.1-0.7-0.4-0.7h-8.9c-0.5,0-1,0.3-1.2,0.8l-5.5,11v14l4.8,9.4
	c0.2,0.5,0.7,0.8,1.2,0.8h10.1C160.2,73.6,160.5,73.2,160.3,72.9z"/>
<path class="st0" d="M140.6,46.5l-4.2-8c-0.3-0.5-0.8-0.8-1.3-0.8h-10.1c-0.3,0-0.6,0.4-0.4,0.7l10.1,16.4l-10.6,18.2
	c-0.2,0.3,0.1,0.7,0.4,0.7h9.1c0.5,0,1-0.3,1.3-0.8l5.6-10.7V46.5z"/>
<polygon class="st0" points="63.4,40.1 63.4,38.9 63.4,38.8 "/>
<path class="st0" d="M42.6,38.8l0.1,0.1V24.7h-8.8c-0.4,0-0.8,0.4-0.8,0.8l0.4,23.6l-0.4,23.6c0,0.4,0.4,0.8,0.8,0.8h8.4
	c0.1,0,0.3-0.1,0.4-0.1V40.1L42.6,38.8z"/>
<path class="st0" d="M77.7,25.6c0-0.4-0.4-0.8-0.8-0.8h-8.4c-0.1,0-0.3,0.1-0.4,0.1v48.8h8.8c0.4,0,0.8-0.4,0.8-0.8l-0.4-23.6
	L77.7,25.6z"/>
<path class="st0" d="M47.5,25.4c-0.3-0.4-0.8-0.7-1.3-0.7h-0.6v17.5l17.2,30.7c0.3,0.4,0.8,0.7,1.3,0.7h1.1V56.7L47.5,25.4z"/>
<path class="st1" d="M484.5,69.2c-6.1-0.2-9.1-4.6-9.1-14.2c0-9.6,2.9-14.3,9.1-14.6V32c-13.9,0.2-22,9.2-22,22.9
	c0,13.7,8,22.5,22,22.7V69.2z"/>
<path class="st1" d="M487.9,32.4V41c5,0.8,7.5,5.5,7.5,14.4c0,9-2.4,13.4-7.5,14.1v8.5c13.1-0.7,20.5-9.6,20.5-22.9
	C508.4,41.8,501,33.1,487.9,32.4z"/>
<line class="st2" x1="8.9" y1="9.5" x2="8.9" y2="86.6"/>
</svg>
