<?xml version="1.0" encoding="utf-8"?>
<!-- Generator: Adobe Illustrator 22.1.0, SVG Export Plug-In . SVG Version: 6.00 Build 0)  -->
<svg version="1.1" id="Layer_1" xmlns="http://www.w3.org/2000/svg" xmlns:xlink="http://www.w3.org/1999/xlink" x="0px" y="0px"
	 viewBox="0 0 288 144" style="enable-background:new 0 0 288 144;" xml:space="preserve">
<style type="text/css">
	.st0{fill:#122A3F;}
	.st1{fill:#7AAD44;}
</style>
<path class="st0" d="M66.6,78.8c0.2,0,0.5,0.2,0.5,0.5c-0.6,3.7-4.1,6.9-9.8,6.9c-6.8,0-10.5-4.5-10.5-10.7
	c0-6.5,3.9-10.8,10.4-10.8c6.6,0,10.4,4.4,10.6,11.5c0,0.2-0.2,0.5-0.5,0.5H52.7c0.2,3.9,1.8,5.6,4.6,5.6c2,0,3.3-0.9,3.9-3
	c0.1-0.3,0.3-0.5,0.6-0.5H66.6z M57.1,68.7c-2.4,0-3.8,1.4-4.3,4.3h8.3C61,70.8,59.7,68.7,57.1,68.7z"/>
<path class="st0" d="M104.8,85.2c0,0.3-0.2,0.6-0.5,0.6c-1.1,0.3-2.4,0.6-3.6,0.6c-3.5,0-6.8-1.8-6.8-6.4L94,69.9h-2.2
	c-0.2,0-0.5-0.2-0.5-0.5v-3.2c0-0.2,0.2-0.5,0.5-0.5H94L94,61.1c0-0.2,0.2-0.5,0.5-0.5h5.1c0.2,0,0.5,0.2,0.5,0.5l-0.1,4.7h4.4
	c0.2,0,0.5,0.2,0.5,0.5v3.2c0,0.2-0.2,0.5-0.5,0.5h-4.4l0.1,10c0,1.8,0.9,2.3,2.2,2.3c0.9,0,1.6-0.2,2.2-0.3
	c0.2-0.1,0.5,0.1,0.5,0.3L104.8,85.2L104.8,85.2z"/>
<path class="st0" d="M157.2,84.9c0,0.3-0.2,0.6-0.5,0.6c-1.1,0.3-2.4,0.6-3.6,0.6c-3.5,0-6.8-1.8-6.8-6.4l0.1-10.2h-2.2
	c-0.2,0-0.5-0.2-0.5-0.5v-3.2c0-0.2,0.2-0.5,0.5-0.5h2.2l-0.1-4.7c0-0.2,0.2-0.5,0.5-0.5h5.1c0.2,0,0.5,0.2,0.5,0.5l-0.1,4.7h4.4
	c0.2,0,0.5,0.2,0.5,0.5v3.2c0,0.2-0.2,0.5-0.5,0.5h-4.4l0.1,10c0,1.8,0.9,2.3,2.2,2.3c0.9,0,1.6-0.2,2.2-0.3
	c0.2-0.1,0.5,0.1,0.5,0.3L157.2,84.9L157.2,84.9z"/>
<path class="st0" d="M178.8,78.8c0.2,0,0.5,0.2,0.5,0.5c-0.6,3.7-4.1,6.9-9.8,6.9c-6.8,0-10.5-4.5-10.5-10.7
	c0-6.5,3.9-10.8,10.4-10.8c6.6,0,10.4,4.4,10.6,11.5c0,0.2-0.2,0.5-0.5,0.5H165c0.2,3.9,1.8,5.6,4.6,5.6c2,0,3.3-0.9,3.9-3
	c0.1-0.3,0.3-0.5,0.6-0.5H178.8z M169.3,68.7c-2.4,0-3.8,1.4-4.3,4.3h8.3C173.2,70.8,172,68.7,169.3,68.7z"/>
<path class="st1" d="M228,88.4c-9.8,0-16.5-7.1-16.5-17.5c0-10.6,6.5-17.5,16.4-17.5c8.2,0,13.6,4,15.4,11c0.1,0.3-0.2,0.6-0.5,0.6
	h-6.4c-0.3,0-0.6-0.2-0.7-0.6c-1.1-3.6-3.7-5.5-7.8-5.5c-5.8,0-9,4.7-9,12.1c0,7.3,3.3,11.9,9.3,11.9c4.8,0,7.8-2.9,8-8.1H228
	c-0.3,0-0.6-0.3-0.6-0.6v-4.1c0-0.3,0.3-0.6,0.6-0.6h15.5c0.3,0,0.6,0.3,0.6,0.6C244.2,82.4,238.4,88.4,228,88.4z"/>
<path class="st0" d="M188.6,75.6c0-0.1,0-0.2,0-0.2c0-0.1,0-0.1,0-0.1v-9.9c-0.1-0.1-0.2-0.1-0.2-0.1h-5.1c-0.2,0-0.5,0.2-0.5,0.5
	l0.2,11.6L182.7,92c0,0.2,0.2,0.5,0.5,0.5h5.2c0.1,0,0.1,0,0.2-0.1V75.6z"/>
<path class="st0" d="M195.8,64.9c-2.1,0-3.9,0.7-5.2,1.9v4.1c0.7-1.3,1.9-1.9,3.5-1.9c2.9,0,4.4,2.3,4.4,6.8c0,4.1-1.5,6.4-4.5,6.4
	c-1.5,0-2.7-0.7-3.4-2v4.2c1.3,1.1,3,1.8,5.1,1.8c5.6,0,9-4.8,9-10.7C204.7,69.5,201.6,64.9,195.8,64.9z"/>
<path class="st0" d="M125.2,74.2v-5.6c-2.8-0.6-4.9-1.4-4.9-3.4c0-2.3,2-3.3,4.9-3.3c3.3,0,5.3,1.4,5.7,3.7c0.1,0.3,0.2,0.5,0.6,0.5
	h5.3c0.2,0,0.5-0.2,0.4-0.5c-0.9-5.8-5.3-8.3-11.8-8.3c-7.1,0-11.1,3.2-11.1,8.5C114.3,72.2,120.2,73.2,125.2,74.2z"/>
<path class="st0" d="M126.9,68.8v5.6c3.2,0.6,5.9,1.4,5.9,3.8c0,2.6-2,3.7-5.6,3.7c-0.1,0-0.2,0-0.3,0v4.5c0.1,0,0.1,0,0.2,0
	c7.3,0,11.8-3.2,11.8-9C138.9,70.6,132,69.8,126.9,68.8z"/>
<path class="st0" d="M125.2,81.8c-3.5-0.3-4.7-2.2-5.1-4.9c-0.1-0.3-0.2-0.5-0.5-0.5h-5.3c-0.2,0-0.5,0.2-0.5,0.5
	c0.3,6.1,4.8,9.2,11.4,9.5L125.2,81.8L125.2,81.8z"/>
<path class="st0" d="M89.1,85.3l-5.9-10.2l5.6-9.5c0.1-0.2-0.1-0.4-0.2-0.4h-5.1c-0.3,0-0.6,0.2-0.7,0.5L79.7,72v7.9l2.7,5.3
	c0.1,0.3,0.4,0.5,0.7,0.5h5.7C89,85.7,89.2,85.5,89.1,85.3z"/>
<path class="st0" d="M77.9,70.3l-2.4-4.5c-0.2-0.3-0.5-0.5-0.7-0.5h-5.7c-0.2,0-0.3,0.2-0.2,0.4l5.7,9.3l-6,10.3
	c-0.1,0.2,0.1,0.4,0.2,0.4h5.2c0.3,0,0.6-0.2,0.7-0.5l3.2-6.1L77.9,70.3L77.9,70.3z"/>
<polygon class="st0" points="34.1,66.7 34.1,66 34.1,66 "/>
<path class="st0" d="M22.3,66L22.3,66l0.1-8h-5c-0.2,0-0.5,0.2-0.5,0.5l0.2,13.4l-0.2,13.4c0,0.2,0.2,0.5,0.5,0.5h4.8
	c0.1,0,0.2-0.1,0.2-0.1V66.7L22.3,66z"/>
<path class="st0" d="M42.2,58.5c0-0.2-0.2-0.5-0.5-0.5H37c-0.1,0-0.2,0.1-0.2,0.1v27.7h5c0.2,0,0.5-0.2,0.5-0.5L42,71.9L42.2,58.5z"
	/>
<path class="st0" d="M25,58.3c-0.2-0.2-0.5-0.4-0.7-0.4H24v9.9l9.8,17.4c0.2,0.2,0.5,0.4,0.7,0.4h0.6v-9.6L25,58.3z"/>
<path class="st1" d="M258.6,83.2c-3.5-0.1-5.2-2.6-5.2-8.1c0-5.5,1.6-8.1,5.2-8.3v-4.8c-7.9,0.1-12.5,5.2-12.5,13
	c0,7.8,4.5,12.8,12.5,12.9V83.2z"/>
<path class="st1" d="M260.5,62.3v4.9c2.8,0.5,4.3,3.1,4.3,8.2c0,5.1-1.4,7.6-4.3,8v4.8c7.4-0.4,11.6-5.5,11.6-13
	S268,62.7,260.5,62.3z"/>
</svg>
